<?xml version="1.0" encoding="UTF-8"?>
<svg xmlns="http://www.w3.org/2000/svg" xmlns:xlink="http://www.w3.org/1999/xlink" width="56px" height="65px" viewBox="0 0 56 65" version="1.1">
<g id="surface1">
<path style=" stroke:none;fill-rule:nonzero;fill:rgb(7.843137%,44.313725%,66.27451%);fill-opacity:1;" d="M 19.089844 3.539062 L 19.089844 5.9375 L 34.871094 5.9375 L 34.871094 1.136719 L 19.089844 1.136719 Z M 19.089844 3.539062 "/>
<path style=" stroke:none;fill-rule:nonzero;fill:rgb(7.843137%,44.313725%,66.27451%);fill-opacity:1;" d="M 9.671875 6.710938 C 8.730469 6.886719 7.34375 7.644531 6.59375 8.390625 C 4.109375 10.855469 4.097656 14.785156 6.566406 17.234375 C 8.933594 19.585938 12.726562 19.675781 15.195312 17.4375 C 16.621094 16.136719 17.21875 14.773438 17.21875 12.824219 C 17.21875 10.878906 16.621094 9.515625 15.183594 8.214844 C 13.695312 6.863281 11.710938 6.316406 9.671875 6.710938 Z M 9.164062 9.289062 C 9.164062 9.488281 9.238281 9.601562 9.355469 9.601562 C 9.46875 9.601562 9.546875 9.488281 9.546875 9.289062 C 9.546875 9.109375 9.609375 8.972656 9.671875 8.972656 C 9.75 8.972656 9.800781 9.109375 9.800781 9.289062 C 9.800781 9.488281 9.875 9.601562 9.992188 9.601562 C 10.105469 9.601562 10.183594 9.488281 10.183594 9.289062 C 10.183594 9.085938 10.257812 8.972656 10.371094 8.972656 C 10.488281 8.972656 10.5625 9.085938 10.5625 9.289062 C 10.5625 9.488281 10.640625 9.601562 10.753906 9.601562 C 10.867188 9.601562 10.945312 9.488281 10.945312 9.289062 C 10.945312 9.109375 11.007812 8.972656 11.074219 8.972656 C 11.148438 8.972656 11.199219 9.109375 11.199219 9.289062 C 11.199219 9.488281 11.277344 9.601562 11.390625 9.601562 C 11.503906 9.601562 11.582031 9.488281 11.582031 9.289062 C 11.582031 9.109375 11.644531 8.972656 11.710938 8.972656 C 11.785156 8.972656 11.835938 9.109375 11.835938 9.289062 C 11.835938 9.488281 11.914062 9.601562 12.027344 9.601562 C 12.140625 9.601562 12.21875 9.476562 12.21875 9.273438 C 12.21875 8.882812 12.511719 8.921875 12.574219 9.324219 C 12.636719 9.71875 12.980469 9.679688 12.980469 9.289062 C 12.980469 9.109375 13.046875 8.972656 13.109375 8.972656 C 13.183594 8.972656 13.238281 9.109375 13.238281 9.289062 C 13.238281 9.527344 13.300781 9.601562 13.515625 9.601562 C 13.886719 9.601562 14.253906 9.957031 14.253906 10.3125 C 14.253906 10.511719 14.34375 10.613281 14.546875 10.640625 C 14.890625 10.691406 14.878906 10.917969 14.507812 10.96875 C 14.128906 11.03125 14.191406 11.371094 14.585938 11.371094 C 14.761719 11.371094 14.878906 11.421875 14.828125 11.5 C 14.789062 11.5625 14.636719 11.625 14.496094 11.625 C 14.367188 11.625 14.253906 11.714844 14.253906 11.816406 C 14.253906 11.914062 14.367188 12.003906 14.496094 12.003906 C 14.636719 12.003906 14.789062 12.054688 14.828125 12.128906 C 14.878906 12.207031 14.761719 12.257812 14.585938 12.257812 C 14.179688 12.257812 14.140625 12.597656 14.546875 12.660156 C 14.699219 12.6875 14.828125 12.75 14.828125 12.824219 C 14.828125 12.890625 14.699219 12.964844 14.546875 12.988281 C 14.140625 13.054688 14.179688 13.394531 14.585938 13.394531 C 14.761719 13.394531 14.878906 13.445312 14.828125 13.519531 C 14.789062 13.582031 14.636719 13.648438 14.496094 13.648438 C 14.367188 13.648438 14.253906 13.734375 14.253906 13.835938 C 14.253906 13.9375 14.367188 14.027344 14.496094 14.027344 C 14.636719 14.027344 14.789062 14.078125 14.828125 14.152344 C 14.878906 14.226562 14.761719 14.277344 14.585938 14.277344 C 14.179688 14.277344 14.140625 14.621094 14.546875 14.683594 C 14.699219 14.707031 14.828125 14.773438 14.828125 14.847656 C 14.828125 14.910156 14.699219 14.988281 14.546875 15.011719 C 14.34375 15.035156 14.253906 15.136719 14.253906 15.339844 C 14.253906 15.71875 14.027344 15.921875 13.59375 15.921875 C 13.273438 15.921875 13.238281 15.960938 13.238281 16.363281 C 13.238281 16.605469 13.183594 16.804688 13.109375 16.804688 C 13.046875 16.804688 12.980469 16.605469 12.980469 16.363281 C 12.980469 15.78125 12.636719 15.746094 12.574219 16.324219 C 12.523438 16.90625 12.21875 16.945312 12.21875 16.375 C 12.21875 16.058594 12.167969 15.921875 12.027344 15.921875 C 11.898438 15.921875 11.835938 16.058594 11.835938 16.363281 C 11.835938 16.605469 11.785156 16.804688 11.710938 16.804688 C 11.644531 16.804688 11.582031 16.605469 11.582031 16.363281 C 11.582031 16.058594 11.519531 15.921875 11.390625 15.921875 C 11.261719 15.921875 11.199219 16.058594 11.199219 16.363281 C 11.199219 16.605469 11.148438 16.804688 11.074219 16.804688 C 11.007812 16.804688 10.945312 16.605469 10.945312 16.363281 C 10.945312 16.058594 10.882812 15.921875 10.753906 15.921875 C 10.628906 15.921875 10.5625 16.058594 10.5625 16.363281 C 10.5625 16.667969 10.5 16.804688 10.371094 16.804688 C 10.246094 16.804688 10.183594 16.667969 10.183594 16.363281 C 10.183594 16.058594 10.117188 15.921875 9.992188 15.921875 C 9.863281 15.921875 9.800781 16.058594 9.800781 16.363281 C 9.800781 16.605469 9.75 16.804688 9.671875 16.804688 C 9.609375 16.804688 9.546875 16.605469 9.546875 16.363281 C 9.546875 16.058594 9.480469 15.921875 9.355469 15.921875 C 9.226562 15.921875 9.164062 16.058594 9.164062 16.363281 C 9.164062 16.605469 9.113281 16.804688 9.035156 16.804688 C 8.972656 16.804688 8.910156 16.605469 8.910156 16.363281 C 8.910156 15.945312 8.882812 15.921875 8.476562 15.921875 C 8.042969 15.921875 7.890625 15.757812 7.890625 15.289062 C 7.890625 15.113281 7.777344 15.035156 7.484375 15.011719 C 6.898438 14.960938 6.859375 14.65625 7.433594 14.65625 C 7.75 14.65625 7.890625 14.605469 7.890625 14.46875 C 7.890625 14.34375 7.75 14.277344 7.445312 14.277344 C 7.203125 14.277344 7 14.214844 7 14.152344 C 7 14.078125 7.203125 14.027344 7.445312 14.027344 C 7.75 14.027344 7.890625 13.960938 7.890625 13.835938 C 7.890625 13.710938 7.75 13.648438 7.445312 13.648438 C 7.203125 13.648438 7 13.582031 7 13.519531 C 7 13.445312 7.203125 13.394531 7.445312 13.394531 C 8.03125 13.394531 8.070312 13.054688 7.484375 12.988281 C 6.898438 12.9375 6.859375 12.636719 7.433594 12.636719 C 7.75 12.636719 7.890625 12.585938 7.890625 12.445312 C 7.890625 12.320312 7.75 12.257812 7.445312 12.257812 C 7.203125 12.257812 7 12.195312 7 12.128906 C 7 12.054688 7.203125 12.003906 7.445312 12.003906 C 7.75 12.003906 7.890625 11.941406 7.890625 11.816406 C 7.890625 11.6875 7.75 11.625 7.445312 11.625 C 7.203125 11.625 7 11.5625 7 11.5 C 7 11.421875 7.203125 11.371094 7.445312 11.371094 C 8.03125 11.371094 8.070312 11.03125 7.484375 10.96875 C 6.898438 10.917969 6.859375 10.613281 7.433594 10.613281 C 7.851562 10.613281 7.890625 10.589844 7.890625 10.234375 C 7.890625 9.84375 8.171875 9.601562 8.640625 9.601562 C 8.84375 9.601562 8.910156 9.527344 8.910156 9.289062 C 8.910156 9.109375 8.972656 8.972656 9.035156 8.972656 C 9.113281 8.972656 9.164062 9.109375 9.164062 9.289062 Z M 9.164062 9.289062 "/>
<path style=" stroke:none;fill-rule:nonzero;fill:rgb(7.843137%,44.313725%,66.27451%);fill-opacity:1;" d="M 8.449219 12.761719 C 8.449219 14.191406 8.476562 14.773438 8.488281 14.050781 C 8.515625 13.34375 8.515625 12.179688 8.488281 11.460938 C 8.476562 10.753906 8.449219 11.335938 8.449219 12.761719 Z M 8.449219 12.761719 "/>
<path style=" stroke:none;fill-rule:nonzero;fill:rgb(7.843137%,44.313725%,66.27451%);fill-opacity:1;" d="M 9.761719 10.816406 C 9.582031 10.992188 9.671875 11.257812 9.902344 11.222656 C 10.015625 11.195312 10.117188 11.09375 10.117188 11.007812 C 10.117188 10.804688 9.890625 10.691406 9.761719 10.816406 Z M 9.761719 10.816406 "/>
<path style=" stroke:none;fill-rule:nonzero;fill:rgb(7.843137%,44.313725%,66.27451%);fill-opacity:1;" d="M 13.515625 11.246094 C 13.515625 11.421875 13.542969 11.484375 13.578125 11.398438 C 13.605469 11.320312 13.605469 11.171875 13.578125 11.082031 C 13.542969 11.007812 13.515625 11.070312 13.515625 11.246094 Z M 13.515625 11.246094 "/>
<path style=" stroke:none;fill-rule:nonzero;fill:rgb(7.843137%,44.313725%,66.27451%);fill-opacity:1;" d="M 10.742188 11.511719 C 10.613281 11.726562 10.90625 11.964844 11.085938 11.789062 C 11.238281 11.636719 11.136719 11.371094 10.945312 11.371094 C 10.882812 11.371094 10.792969 11.4375 10.742188 11.511719 Z M 10.742188 11.511719 "/>
<path style=" stroke:none;fill-rule:nonzero;fill:rgb(7.843137%,44.313725%,66.27451%);fill-opacity:1;" d="M 11.964844 12.054688 C 11.964844 12.15625 12.015625 12.269531 12.078125 12.308594 C 12.21875 12.394531 12.5 12.082031 12.382812 11.964844 C 12.230469 11.816406 11.964844 11.878906 11.964844 12.054688 Z M 11.964844 12.054688 "/>
<path style=" stroke:none;fill-rule:nonzero;fill:rgb(7.843137%,44.313725%,66.27451%);fill-opacity:1;" d="M 9.800781 12.445312 C 9.800781 12.546875 9.914062 12.636719 10.054688 12.636719 C 10.195312 12.636719 10.308594 12.546875 10.308594 12.445312 C 10.308594 12.34375 10.195312 12.257812 10.054688 12.257812 C 9.914062 12.257812 9.800781 12.34375 9.800781 12.445312 Z M 9.800781 12.445312 "/>
<path style=" stroke:none;fill-rule:nonzero;fill:rgb(7.843137%,44.313725%,66.27451%);fill-opacity:1;" d="M 11.160156 13.089844 C 10.984375 13.269531 11.074219 13.535156 11.300781 13.496094 C 11.417969 13.46875 11.519531 13.367188 11.519531 13.28125 C 11.519531 13.078125 11.289062 12.964844 11.160156 13.089844 Z M 11.160156 13.089844 "/>
<path style=" stroke:none;fill-rule:nonzero;fill:rgb(7.843137%,44.313725%,66.27451%);fill-opacity:1;" d="M 12.945312 13.597656 C 12.828125 13.722656 12.96875 13.898438 13.183594 13.898438 C 13.289062 13.898438 13.363281 13.8125 13.363281 13.710938 C 13.363281 13.519531 13.097656 13.445312 12.945312 13.597656 Z M 12.945312 13.597656 "/>
<path style=" stroke:none;fill-rule:nonzero;fill:rgb(7.843137%,44.313725%,66.27451%);fill-opacity:1;" d="M 11.582031 14.203125 C 11.582031 14.304688 11.632812 14.417969 11.695312 14.457031 C 11.835938 14.542969 12.117188 14.226562 12 14.113281 C 11.847656 13.960938 11.582031 14.027344 11.582031 14.203125 Z M 11.582031 14.203125 "/>
<path style=" stroke:none;fill-rule:nonzero;fill:rgb(7.843137%,44.313725%,66.27451%);fill-opacity:1;" d="M 12.917969 14.265625 C 12.816406 14.457031 12.957031 14.65625 13.183594 14.65625 C 13.300781 14.65625 13.363281 14.570312 13.339844 14.441406 C 13.289062 14.191406 13.03125 14.089844 12.917969 14.265625 Z M 12.917969 14.265625 "/>
<path style=" stroke:none;fill-rule:nonzero;fill:rgb(7.843137%,44.313725%,66.27451%);fill-opacity:1;" d="M 9.164062 14.707031 C 9.164062 14.835938 9.277344 14.910156 9.429688 14.910156 C 9.738281 14.910156 9.699219 14.621094 9.378906 14.558594 C 9.253906 14.53125 9.164062 14.59375 9.164062 14.707031 Z M 9.164062 14.707031 "/>
<path style=" stroke:none;fill-rule:nonzero;fill:rgb(7.843137%,44.313725%,66.27451%);fill-opacity:1;" d="M 19.089844 32.539062 L 19.089844 57.242188 L 45.183594 57.242188 L 45.183594 46.878906 L 24.945312 46.878906 L 24.945312 38.160156 L 54.34375 38.160156 L 54.34375 26.664062 L 24.945312 26.664062 L 24.945312 17.941406 L 45.183594 17.941406 L 45.183594 7.835938 L 19.089844 7.835938 Z M 19.089844 32.539062 "/>
<path style=" stroke:none;fill-rule:nonzero;fill:rgb(7.843137%,44.313725%,66.27451%);fill-opacity:1;" d="M 7.507812 24.96875 C 5.449219 25.5 3.398438 27.128906 2.507812 28.9375 C 1.792969 30.378906 1.617188 31.273438 1.691406 32.917969 C 1.769531 34.609375 2.0625 35.519531 2.953125 36.847656 C 5.6875 40.914062 11.390625 41.484375 14.902344 38.035156 C 17.347656 35.644531 17.957031 32.132812 16.46875 29.113281 C 15.449219 27.054688 13.464844 25.460938 11.300781 24.957031 C 10.296875 24.730469 8.425781 24.730469 7.507812 24.96875 Z M 9.976562 26.234375 C 10.078125 26.269531 10.207031 26.484375 10.246094 26.710938 C 10.320312 27.066406 10.398438 27.128906 10.90625 27.242188 C 11.441406 27.371094 11.492188 27.355469 11.671875 27.078125 C 11.914062 26.710938 12 26.710938 12.675781 27.105469 C 13.199219 27.40625 13.210938 27.445312 13.082031 27.800781 C 12.96875 28.128906 12.996094 28.230469 13.324219 28.609375 C 13.578125 28.925781 13.746094 29.023438 13.9375 28.960938 C 14.496094 28.796875 14.660156 28.875 14.96875 29.441406 L 15.273438 30 L 14.929688 30.261719 C 14.609375 30.527344 14.597656 30.542969 14.777344 31.097656 C 14.929688 31.566406 15.019531 31.667969 15.335938 31.714844 C 15.707031 31.78125 15.71875 31.804688 15.757812 32.5 L 15.792969 33.21875 L 15.347656 33.296875 C 14.96875 33.371094 14.902344 33.449219 14.777344 33.902344 C 14.660156 34.382812 14.675781 34.457031 14.953125 34.738281 L 15.261719 35.050781 L 14.929688 35.660156 C 14.699219 36.0625 14.535156 36.253906 14.40625 36.203125 C 13.835938 35.988281 13.667969 36.011719 13.3125 36.378906 C 12.980469 36.71875 12.96875 36.785156 13.097656 37.164062 C 13.171875 37.390625 13.222656 37.578125 13.210938 37.605469 C 13.183594 37.617188 12.917969 37.78125 12.601562 37.957031 L 12.027344 38.273438 L 11.710938 37.972656 C 11.417969 37.695312 11.351562 37.679688 10.855469 37.820312 C 10.398438 37.933594 10.320312 38.007812 10.246094 38.375 C 10.167969 38.792969 10.167969 38.792969 9.417969 38.792969 L 8.667969 38.792969 L 8.628906 38.386719 C 8.589844 38.023438 8.527344 37.957031 8.019531 37.820312 C 7.472656 37.65625 7.445312 37.667969 7.179688 37.996094 L 6.910156 38.335938 L 6.3125 37.984375 C 5.6875 37.617188 5.664062 37.578125 5.84375 37.113281 C 5.945312 36.847656 5.90625 36.746094 5.550781 36.40625 C 5.191406 36.0625 5.105469 36.027344 4.734375 36.125 C 4.289062 36.253906 4.175781 36.152344 3.804688 35.355469 C 3.664062 35.039062 3.679688 34.976562 3.972656 34.75 C 4.289062 34.507812 4.289062 34.472656 4.148438 33.976562 C 4.023438 33.546875 3.90625 33.421875 3.550781 33.308594 C 3.15625 33.183594 3.117188 33.121094 3.078125 32.625 C 3.027344 31.996094 3.195312 31.742188 3.664062 31.691406 C 3.957031 31.652344 4.023438 31.566406 4.109375 31.097656 C 4.210938 30.617188 4.1875 30.515625 3.933594 30.25 L 3.640625 29.933594 L 3.945312 29.378906 C 4.277344 28.785156 4.417969 28.722656 4.863281 28.949219 C 5.078125 29.0625 5.179688 29.023438 5.535156 28.683594 C 5.917969 28.316406 5.945312 28.242188 5.828125 27.902344 C 5.675781 27.472656 5.878906 27.167969 6.515625 26.902344 C 6.886719 26.75 6.9375 26.761719 7.191406 27.066406 C 7.457031 27.371094 7.507812 27.382812 8.003906 27.257812 C 8.414062 27.140625 8.550781 27.042969 8.605469 26.789062 C 8.742188 26.183594 8.769531 26.15625 9.277344 26.15625 C 9.558594 26.15625 9.863281 26.195312 9.976562 26.234375 Z M 9.976562 26.234375 "/>
<path style=" stroke:none;fill-rule:nonzero;fill:rgb(7.843137%,44.313725%,66.27451%);fill-opacity:1;" d="M 7.738281 28.34375 C 6.65625 28.796875 5.894531 29.503906 5.382812 30.515625 C 5.027344 31.210938 4.949219 31.628906 4.949219 32.601562 C 4.949219 34.914062 6.746094 36.808594 9.101562 37 C 12.511719 37.265625 14.992188 33.738281 13.566406 30.640625 C 13.148438 29.734375 12.5 29.050781 11.554688 28.542969 C 10.84375 28.179688 10.628906 28.128906 9.609375 28.089844 C 8.628906 28.050781 8.363281 28.089844 7.738281 28.34375 Z M 7.738281 28.34375 "/>
<path style=" stroke:none;fill-rule:nonzero;fill:rgb(7.843137%,44.313725%,66.27451%);fill-opacity:1;" d="M 9.304688 45.679688 C 8.261719 45.96875 7.40625 46.488281 6.554688 47.320312 C 4.175781 49.683594 4.097656 53.425781 6.363281 55.890625 C 9.925781 59.757812 16.304688 57.847656 17.195312 52.65625 C 17.679688 49.796875 15.910156 46.84375 13.132812 45.832031 C 12.179688 45.488281 10.269531 45.414062 9.304688 45.679688 Z M 11.238281 51.746094 C 10.527344 53.160156 10.183594 53.703125 10.027344 53.703125 C 9.902344 53.703125 9.800781 53.679688 9.800781 53.640625 C 9.800781 53.601562 10.234375 52.71875 10.753906 51.679688 C 11.503906 50.191406 11.761719 49.785156 11.964844 49.785156 C 12.179688 49.785156 12.089844 50.039062 11.238281 51.746094 Z M 9.394531 50.558594 C 9.367188 50.757812 9.125 50.921875 8.398438 51.203125 C 7.878906 51.402344 7.394531 51.617188 7.34375 51.667969 C 7.292969 51.71875 7.738281 51.960938 8.335938 52.199219 C 9.238281 52.554688 9.417969 52.679688 9.417969 52.90625 C 9.417969 53.183594 9.40625 53.183594 8.375 52.742188 C 7.789062 52.492188 7.101562 52.199219 6.835938 52.097656 C 6.082031 51.796875 6.261719 51.566406 7.828125 50.910156 C 8.605469 50.582031 9.277344 50.304688 9.328125 50.304688 C 9.394531 50.292969 9.417969 50.417969 9.394531 50.558594 Z M 14.101562 50.886719 C 15.972656 51.667969 15.972656 51.757812 14.027344 52.566406 C 13.238281 52.90625 12.5625 53.121094 12.523438 53.046875 C 12.359375 52.792969 12.625 52.589844 13.667969 52.1875 C 14.28125 51.960938 14.726562 51.730469 14.675781 51.679688 C 14.625 51.644531 14.179688 51.441406 13.683594 51.238281 C 12.664062 50.835938 12.472656 50.707031 12.472656 50.46875 C 12.472656 50.214844 12.5 50.226562 14.101562 50.886719 Z M 14.101562 50.886719 "/>
<path style=" stroke:none;fill-rule:nonzero;fill:rgb(7.843137%,44.313725%,66.27451%);fill-opacity:1;" d="M 19.089844 61.539062 L 19.089844 63.9375 L 34.871094 63.9375 L 34.871094 59.136719 L 19.089844 59.136719 Z M 19.089844 61.539062 "/>
</g>
</svg>
