<?xml version="1.0" standalone="no"?>
<!DOCTYPE svg PUBLIC "-//W3C//DTD SVG 20010904//EN"
 "http://www.w3.org/TR/2001/REC-SVG-20010904/DTD/svg10.dtd">
<svg version="1.0" xmlns="http://www.w3.org/2000/svg"
 width="440.000000pt" height="514.000000pt" viewBox="0 0 440.000000 514.000000"
 preserveAspectRatio="xMidYMid meet">

<g transform="translate(0.000000,514.000000) scale(0.100000,-0.100000)"
fill="#ffffff" stroke="none">
<path d="M1500 4860 l0 -190 620 0 620 0 0 190 0 190 -620 0 -620 0 0 -190z"/>
<path d="M760 4609 c-74 -14 -183 -74 -242 -133 -195 -195 -196 -506 -2 -700
186 -186 484 -193 678 -16 112 103 159 211 159 365 0 154 -47 262 -160 365
-117 107 -273 150 -433 119z m-40 -204 c0 -16 6 -25 15 -25 9 0 15 9 15 25 0
14 5 25 10 25 6 0 10 -11 10 -25 0 -16 6 -25 15 -25 9 0 15 9 15 25 0 16 6 25
15 25 9 0 15 -9 15 -25 0 -16 6 -25 15 -25 9 0 15 9 15 25 0 14 5 25 10 25 6
0 10 -11 10 -25 0 -16 6 -25 15 -25 9 0 15 9 15 25 0 14 5 25 10 25 6 0 10
-11 10 -25 0 -16 6 -25 15 -25 9 0 15 10 15 26 0 31 23 28 28 -4 5 -31 32 -28
32 3 0 14 5 25 10 25 6 0 10 -11 10 -25 0 -19 5 -25 22 -25 29 0 58 -28 58
-56 0 -16 7 -24 23 -26 27 -4 26 -22 -3 -26 -30 -5 -25 -32 6 -32 14 0 23 -4
19 -10 -3 -5 -15 -10 -26 -10 -10 0 -19 -7 -19 -15 0 -8 9 -15 19 -15 11 0 23
-4 26 -10 4 -6 -5 -10 -19 -10 -32 0 -35 -27 -3 -32 12 -2 22 -7 22 -13 0 -5
-10 -11 -22 -13 -32 -5 -29 -32 3 -32 14 0 23 -4 19 -10 -3 -5 -15 -10 -26
-10 -10 0 -19 -7 -19 -15 0 -8 9 -15 19 -15 11 0 23 -4 26 -10 4 -6 -5 -10
-19 -10 -32 0 -35 -27 -3 -32 12 -2 22 -7 22 -13 0 -5 -10 -11 -22 -13 -16 -2
-23 -10 -23 -26 0 -30 -18 -46 -52 -46 -25 0 -28 -3 -28 -35 0 -19 -4 -35 -10
-35 -5 0 -10 16 -10 35 0 46 -27 49 -32 3 -4 -46 -28 -49 -28 -4 0 25 -4 36
-15 36 -10 0 -15 -11 -15 -35 0 -19 -4 -35 -10 -35 -5 0 -10 16 -10 35 0 24
-5 35 -15 35 -10 0 -15 -11 -15 -35 0 -19 -4 -35 -10 -35 -5 0 -10 16 -10 35
0 24 -5 35 -15 35 -10 0 -15 -11 -15 -35 0 -24 -5 -35 -15 -35 -10 0 -15 11
-15 35 0 24 -5 35 -15 35 -10 0 -15 -11 -15 -35 0 -19 -4 -35 -10 -35 -5 0
-10 16 -10 35 0 24 -5 35 -15 35 -10 0 -15 -11 -15 -35 0 -19 -4 -35 -10 -35
-5 0 -10 16 -10 35 0 33 -2 35 -34 35 -34 0 -46 13 -46 50 0 14 -9 20 -32 22
-46 4 -49 28 -4 28 25 0 36 4 36 15 0 10 -11 15 -35 15 -19 0 -35 5 -35 10 0
6 16 10 35 10 24 0 35 5 35 15 0 10 -11 15 -35 15 -19 0 -35 5 -35 10 0 6 16
10 35 10 46 0 49 27 3 32 -46 4 -49 28 -4 28 25 0 36 4 36 15 0 10 -11 15 -35
15 -19 0 -35 5 -35 10 0 6 16 10 35 10 24 0 35 5 35 15 0 10 -11 15 -35 15
-19 0 -35 5 -35 10 0 6 16 10 35 10 46 0 49 27 3 32 -46 4 -49 28 -4 28 33 0
36 2 36 30 0 31 22 50 59 50 16 0 21 6 21 25 0 14 5 25 10 25 6 0 10 -11 10
-25z"/>
<path d="M664 4130 c0 -113 2 -159 3 -102 2 56 2 148 0 205 -1 56 -3 10 -3
-103z"/>
<path d="M767 4284 c-14 -14 -7 -35 11 -32 9 2 17 10 17 17 0 16 -18 25 -28
15z"/>
<path d="M1062 4250 c0 -14 2 -19 5 -12 2 6 2 18 0 25 -3 6 -5 1 -5 -13z"/>
<path d="M844 4229 c-10 -17 13 -36 27 -22 12 12 4 33 -11 33 -5 0 -12 -5 -16
-11z"/>
<path d="M940 4186 c0 -8 4 -17 9 -20 11 -7 33 18 24 27 -12 12 -33 7 -33 -7z"/>
<path d="M770 4155 c0 -8 9 -15 20 -15 11 0 20 7 20 15 0 8 -9 15 -20 15 -11
0 -20 -7 -20 -15z"/>
<path d="M877 4104 c-14 -14 -7 -35 11 -32 9 2 17 10 17 17 0 16 -18 25 -28
15z"/>
<path d="M1017 4064 c-9 -10 2 -24 19 -24 8 0 14 7 14 15 0 15 -21 21 -33 9z"/>
<path d="M910 4016 c0 -8 4 -17 9 -20 11 -7 33 18 24 27 -12 12 -33 7 -33 -7z"/>
<path d="M1015 4011 c-8 -15 3 -31 21 -31 9 0 14 7 12 17 -4 20 -24 28 -33 14z"/>
<path d="M720 3976 c0 -10 9 -16 21 -16 24 0 21 23 -4 28 -10 2 -17 -3 -17
-12z"/>
<path d="M1500 2565 l0 -1955 1025 0 1025 0 0 410 0 410 -795 0 -795 0 0 345
0 345 1155 0 1155 0 0 455 0 455 -1155 0 -1155 0 0 345 0 345 795 0 795 0 0
400 0 400 -1025 0 -1025 0 0 -1955z"/>
<path d="M590 3164 c-162 -42 -323 -171 -393 -314 -56 -114 -70 -185 -64 -315
6 -134 29 -206 99 -311 215 -322 663 -367 939 -94 192 189 240 467 123 706
-80 163 -236 289 -406 329 -79 18 -226 18 -298 -1z m194 -100 c8 -3 18 -20 21
-38 6 -28 12 -33 52 -42 42 -10 46 -9 60 13 19 29 26 29 79 -2 41 -24 42 -27
32 -55 -9 -26 -7 -34 19 -64 20 -25 33 -33 48 -28 44 13 57 7 81 -38 l24 -44
-27 -21 c-25 -21 -26 -22 -12 -66 12 -37 19 -45 44 -49 29 -5 30 -7 33 -62 l3
-57 -35 -6 c-30 -6 -35 -12 -45 -48 -9 -38 -8 -44 14 -66 l24 -25 -26 -48
c-18 -32 -31 -47 -41 -43 -45 17 -58 15 -86 -14 -26 -27 -27 -32 -17 -62 6
-18 10 -33 9 -35 -2 -1 -23 -14 -48 -28 l-45 -25 -25 24 c-23 22 -28 23 -67
12 -36 -9 -42 -15 -48 -44 -6 -33 -6 -33 -65 -33 l-59 0 -3 32 c-3 29 -8 34
-48 45 -43 13 -45 12 -66 -14 l-21 -27 -47 28 c-49 29 -51 32 -37 69 8 21 5
29 -23 56 -28 27 -35 30 -64 22 -35 -10 -44 -2 -73 61 -11 25 -10 30 13 48 25
19 25 22 14 61 -10 34 -19 44 -47 53 -31 10 -34 15 -37 54 -4 50 9 70 46 74
23 3 28 10 35 47 8 38 6 46 -14 67 l-23 25 24 44 c26 47 37 52 72 34 17 -9 25
-6 53 21 30 29 32 35 23 62 -12 34 4 58 54 79 29 12 33 11 53 -13 21 -24 25
-25 64 -15 32 9 43 17 47 37 11 48 13 50 53 50 22 0 46 -3 55 -6z"/>
<path d="M608 2897 c-85 -36 -145 -92 -185 -172 -28 -55 -34 -88 -34 -165 0
-183 141 -333 326 -348 268 -21 463 258 351 503 -33 72 -84 126 -158 166 -56
29 -73 33 -153 36 -77 3 -98 0 -147 -20z"/>
<path d="M731 1525 c-82 -23 -149 -64 -216 -130 -187 -187 -193 -483 -15 -678
280 -306 781 -155 851 256 38 226 -101 460 -319 540 -75 27 -225 33 -301 12z
m152 -480 c-56 -112 -83 -155 -95 -155 -10 0 -18 2 -18 5 0 3 34 73 75 155 59
118 79 150 95 150 17 0 10 -20 -57 -155z m-145 94 c-2 -16 -21 -29 -78 -51
-41 -16 -79 -33 -83 -37 -4 -4 31 -23 78 -42 71 -28 85 -38 85 -56 0 -22 -1
-22 -82 13 -46 20 -100 43 -121 51 -59 24 -45 42 78 94 61 26 114 48 118 48 5
1 7 -9 5 -20z m370 -26 c147 -62 147 -69 -6 -133 -62 -27 -115 -44 -118 -38
-13 20 8 36 90 68 48 18 83 36 79 40 -4 3 -39 19 -78 35 -80 32 -95 42 -95 61
0 20 2 19 128 -33z"/>
<path d="M1500 270 l0 -190 620 0 620 0 0 190 0 190 -620 0 -620 0 0 -190z"/>
</g>
</svg>
